<svg width="47" height="35" viewBox="0 0 47 35" fill="none" xmlns="http://www.w3.org/2000/svg">
<path d="M41.6987 0.98877H4.6492C2.20925 0.98877 0.231445 2.96012 0.231445 5.39212V29.6081C0.231445 32.0401 2.20925 34.0115 4.6492 34.0115H41.6987C44.1386 34.0115 46.1164 32.0401 46.1164 29.6081V5.39212C46.1164 2.96012 44.1386 0.98877 41.6987 0.98877ZM36.7682 12.537C35.6578 13.7622 33.9985 13.8541 32.3561 14.0669L27.4938 14.6954C27.757 15.5848 27.8998 16.526 27.8998 17.5001C27.8998 22.9559 23.462 27.3793 17.9883 27.3793C12.5147 27.3793 8.07686 22.9559 8.07686 17.5001C8.07686 15.939 8.44835 14.3867 9.16325 12.9976C9.89018 11.5853 10.9613 10.3553 12.2603 9.43718C12.9134 8.97493 13.6227 8.59266 14.3681 8.30076C14.746 8.15281 15.1336 8.02805 15.5275 7.92808C16.6059 7.65377 17.799 7.76893 18.9022 7.76093C19.8763 7.75374 20.8503 7.74734 21.8252 7.74014C22.9854 7.73134 24.1464 7.72335 25.3074 7.71455C26.5318 7.70575 27.757 7.69696 28.9814 7.68816C30.1472 7.67936 31.3138 7.67136 32.4796 7.66257C33.4641 7.65537 34.4494 7.64817 35.4339 7.64097C36.1151 7.63618 36.7955 7.63138 37.4767 7.62658C37.731 7.62498 37.9862 7.62258 38.2405 7.62098C38.2405 7.62098 38.612 10.5016 36.7682 12.537Z" fill="#521DA4"/>
</svg>
